<?xml version="1.0" standalone="no"?>
<!DOCTYPE svg PUBLIC "-//W3C//DTD SVG 1.1//EN" "http://www.w3.org/Graphics/SVG/1.1/DTD/svg11.dtd">
<svg xmlns="http://www.w3.org/2000/svg">
<defs >
<font id="Akshar" horiz-adv-x="439" ><font-face
    font-family="Akshar Light Light"
    units-per-em="1000"
    panose-1="0 0 0 0 0 0 0 0 0 0"
    ascent="990"
    descent="-390"
    alphabetic="0" />
<glyph unicode=" " horiz-adv-x="180" />
<glyph unicode="!" horiz-adv-x="199" d="M72 206L66 700H132L126 206H72ZM99 0Q78 0 64 14T50 49Q50 70 64 84T99 99Q120 99 134 85T149 49Q149 28 135 14T99 0Z" />
<glyph unicode="&quot;" horiz-adv-x="277" d="M163 500L151 715H217L205 500H163ZM72 500L60 715H126L114 500H72Z" />
<glyph unicode="#" horiz-adv-x="597" d="M286 31L428 631H494L352 31H286ZM50 206L63 272H503L490 206H50ZM98 31L240 631H306L164 31H98ZM94 389L107 455H547L534 389H94Z" />
<glyph unicode="$" horiz-adv-x="448" d="M196 663V800H249V663H196ZM196 -101V36H249V-101H196ZM345 153Q345 191 325 221T272 278T202 332T133 390T80 459T59 547H125Q125 510 145 480T198 422T268 368T337 310T390 241T411 153H345ZM59 545Q59 599 82 637T147
695T244 715V652Q188 652 157 624T125 545H59ZM411 155Q411 101 388 63T324 5T226 -15V48Q282 48 313 76T345 155H411ZM349 562Q344 609 314 630T244 652V715Q288 715 324 697T384 647T413 576L349 562ZM96 187Q103 122 137 85T226 48V-15Q147 -15 97 35T35 174L96
187Z" />
<glyph unicode="%" horiz-adv-x="624" d="M74 -3L485 703H550L139 -3H74ZM442 -12V42Q476 42 498 64T520 120H574Q574 83 557 53T510 6T442 -12ZM442 -12Q405 -12 375 5T328 53T311 120H365Q365 86 387 64T442 42V-12ZM311 120Q311 158 328 187T375 234T442 251V197Q409
197 387 175T365 120H311ZM520 120Q520 153 498 175T442 197V251Q480 251 509 234T556 188T574 120H520ZM181 449V503Q215 503 237 525T259 581H313Q313 544 296 514T249 467T181 449ZM181 449Q144 449 114 466T67 514T50 581H104Q104 547 126 525T181 503V449ZM50
581Q50 619 67 648T114 695T181 712V658Q148 658 126 636T104 581H50ZM259 581Q259 614 237 636T181 658V712Q219 712 248 695T295 649T313 581H259Z" />
<glyph unicode="&amp;" horiz-adv-x="633" d="M528 0L201 382L245 429L573 41L528 0ZM236 -16Q153 -16 107 30T60 153H125Q125 119 138 95T176 57T236 44V-16ZM236 -16V44Q253 44 272 50T312 71T353 108L390 57Q366 32 339 16T286 -8T236 -16ZM60 153Q59 187 72
220T108 285T156 342T205 391T245 429L288 378Q275 362 249 338T194 284T145 221T125 153H60ZM390 57L353 108L498 264L539 223L390 57ZM201 382Q181 407 158 436T117 499T100 571H163Q163 546 176 521T209 472T245 429L201 382ZM100 571Q100 612 119 644T171 696T246
715V652Q211 652 187 629T163 571H100ZM350 562Q345 609 315 630T245 652V715Q289 715 325 697T385 647T414 576L350 562Z" />
<glyph unicode="&apos;" horiz-adv-x="186" d="M72 500L60 715H126L114 500H72Z" />
<glyph unicode="(" horiz-adv-x="239" d="M173 -120Q50 104 50 335T173 790H239Q132 566 132 335T239 -120H173Z" />
<glyph unicode=")" horiz-adv-x="239" d="M66 -120H0Q107 104 107 335T0 790H66Q189 566 189 335T66 -120Z" />
<glyph unicode="*" horiz-adv-x="372" d="M292 479L171 549L50 619L80 671L201 601L322 531L292 479ZM80 479L50 531L171 601L292 671L322 619L201 549L80 479ZM156 435V575V715H216V575V435H156Z" />
<glyph unicode="+" horiz-adv-x="450" d="M192 125V515H258V125H192ZM30 287V353H420V287H30Z" />
<glyph unicode="," horiz-adv-x="203" d="M50 -71Q62 -53 71 -39T85 -12T94 17T97 53L153 63Q153 33 146 8T124 -42T92 -94L50 -71ZM103 14Q82 14 68 28T54 63Q54 84 68 98T103 113Q124 113 138 99T153 63Q153 42 139 28T103 14Z" />
<glyph unicode="-" horiz-adv-x="370" d="M50 287V353H320V287H50Z" />
<glyph unicode="." horiz-adv-x="199" d="M99 0Q78 0 64 14T50 49Q50 70 64 84T99 99Q120 99 134 85T149 49Q149 28 135 14T99 0Z" />
<glyph unicode="/" horiz-adv-x="320" d="M25 0L226 700H295L94 0H25Z" />
<glyph unicode="0" horiz-adv-x="452" d="M331 165V535H397V165H331ZM55 165V535H121V165H55ZM224 652V715H228V652H224ZM224 -15V48H228V-15H224ZM55 535Q55 587 77 627T138 691T226 715V652Q177 652 149 622T121 535H55ZM397 535H331Q331 591 304 621T226 652V715Q275
715 313 692T374 628T397 535ZM55 165H121Q121 110 149 79T226 48V-15Q177 -15 139 8T78 72T55 165ZM397 165Q397 113 375 73T314 9T226 -15V48Q276 48 303 79T331 165H397Z" />
<glyph unicode="1" horiz-adv-x="294" d="M73 516L30 561L158 700V609L73 516ZM158 0V700H224V0H158Z" />
<glyph unicode="2" horiz-adv-x="444" d="M70 66Q71 135 90 185T139 272T202 341T265 404T314 473T333 561Q333 561 339 561T356 561T376 561T392 561T399 561Q399 498 380 453T331 374T267 309T203 245T154 169T133 66H70ZM70 0V66H399V0H70ZM124 572L60 586Q65
626 88 657T149 706T229 725V662Q189 662 159 641T124 572ZM399 560H333Q333 604 303 633T228 662V725Q277 725 315 704T376 645T399 560Z" />
<glyph unicode="3" horiz-adv-x="434" d="M218 339V402Q259 402 286 438T314 529H380Q380 475 359 432T302 364T218 339ZM323 148V237H389V148H323ZM157 339V402H219V339H157ZM314 528Q314 581 287 616T218 652V715Q265 715 301 691T359 624T380 528H314ZM389
149Q389 102 367 65T306 6T218 -16V47Q263 47 293 76T323 149H389ZM389 237H323Q323 281 293 310T218 339V402Q267 402 305 381T366 322T389 237ZM114 562L50 576Q55 616 78 647T139 696T219 715V652Q179 652 149 631T114 562ZM114 137Q119 91 149 69T219 47V-16Q176
-16 139 2T79 52T50 123L114 137Z" />
<glyph unicode="4" horiz-adv-x="464" d="M35 221L224 700H290L101 221H35ZM35 155V221H424V155H35ZM281 0V399H344V0H281Z" />
<glyph unicode="5" horiz-adv-x="459" d="M70 295V700H136V295H70ZM333 164V295H399V164H333ZM70 634V700H383V634H70ZM333 294Q333 340 303 370T229 400L233 460Q281 460 318 439T377 380T399 294H333ZM88 295Q88 342 107 379T159 438T234 460L230 400Q190 400
163 370T136 295H88ZM399 164Q399 112 377 72T316 8T228 -16V47Q278 47 305 78T333 164H399ZM124 137Q129 91 159 69T229 47V-16Q186 -16 149 2T89 52T60 123L124 137Z" />
<glyph unicode="6" horiz-adv-x="447" d="M60 250Q60 338 76 409T120 538T181 639T247 715L299 676Q264 640 233 601T178 514T140 401T126 250H60ZM60 165V250H126V165H60ZM336 165V250H402V165H336ZM402 165Q402 113 380 73T319 9T231 -15V48Q281 48 308 79T336
165H402ZM60 165H126Q126 110 154 79T231 48V-15Q182 -15 144 8T83 72T60 165ZM402 250H336Q336 306 309 336T231 367V430Q280 430 318 407T379 343T402 250ZM60 250Q60 302 82 342T143 406T231 430V367Q182 367 154 337T126 250H60Z" />
<glyph unicode="7" horiz-adv-x="409" d="M94 0L313 634H379L160 0H94ZM30 634V700H379V634H30Z" />
<glyph unicode="8" horiz-adv-x="462" d="M336 222Q336 278 309 308T231 339V402Q311 402 356 355T402 222H336ZM231 -15Q151 -15 106 32T60 165H126Q126 128 138 102T174 62T231 48V-15ZM60 165V222H126V165H60ZM231 -15V48Q264 48 287 62T323 102T336 165H402Q402
80 357 33T231 -15ZM60 222Q60 307 105 354T231 402V339Q182 339 154 309T126 222H60ZM336 165V222H402V165H336ZM231 339Q158 339 114 386T69 509H135Q135 457 159 430T231 402V339ZM69 509V545H135V509H69ZM231 339V402Q278 402 302 429T327 509H393Q393 433
349 386T231 339ZM69 545Q69 622 113 668T231 715V652Q200 652 179 640T146 604T135 545H69ZM327 509V545H393V509H327ZM327 545Q327 580 316 604T284 640T231 652V715Q304 715 348 669T393 545H327Z" />
<glyph unicode="9" horiz-adv-x="447" d="M387 450Q387 362 371 291T327 162T266 61T200 -15L148 24Q183 60 214 99T269 186T307 299T321 450H387ZM387 535V450H321V535H387ZM111 535V450H45V535H111ZM45 535Q45 587 67 627T128 691T216 715V652Q167 652 139 622T111
535H45ZM387 535H321Q321 591 294 621T216 652V715Q265 715 303 692T364 628T387 535ZM45 450H111Q111 395 139 364T216 333V270Q167 270 129 293T68 358T45 450ZM387 450Q387 399 365 358T304 294T216 270V333Q266 333 293 364T321 450H387Z" />
<glyph unicode=":" horiz-adv-x="250" d="M149 41Q128 41 114 55T100 90Q100 111 114 125T149 140Q170 140 184 126T199 90Q199 69 185 55T149 41ZM150 364Q129 364 115 378T101 413Q101 434 115 448T150 463Q171 463 185 449T200 413Q200 392 186 378T150 364Z" />
<glyph unicode=";" horiz-adv-x="264" d="M149 364Q128 364 114 378T100 413Q100 434 114 448T149 463Q170 463 184 449T199 413Q199 392 185 378T149 364ZM111 -71Q123 -53 132 -39T146 -12T155 17T158 53L214 63Q214 33 207 8T185 -42T153 -94L111 -71ZM164
14Q143 14 129 28T115 63Q115 84 129 98T164 113Q185 113 199 99T214 63Q214 42 200 28T164 14Z" />
<glyph unicode="&lt;" horiz-adv-x="411" d="M30 282V348L381 526V460L30 282ZM381 104L30 282V348L381 170V104Z" />
<glyph unicode="=" horiz-adv-x="388" d="M30 397V463H358V397H30ZM30 237V303H358V237H30Z" />
<glyph unicode="&gt;" horiz-adv-x="411" d="M381 282L30 460V526L381 348V282ZM30 104V170L381 348V282L30 104Z" />
<glyph unicode="?" horiz-adv-x="415" d="M150 184Q150 247 165 291T203 367T248 426T286 481T302 545Q302 598 274 625T190 652Q161 652 141 642T111 613T101 565H35Q35 610 54 644T109 696T190 715Q243 715 282 694T343 635T365 545Q365 502 350 471T312 413T267
356T229 284T213 184H150ZM150 161V184H213V161H150ZM181 0Q160 0 146 14T132 49Q132 70 146 84T181 99Q202 99 216 85T231 49Q231 28 217 14T181 0Z" />
<glyph unicode="@" horiz-adv-x="718" d="M52 328Q58 402 84 462T155 565T258 631T387 655L382 594Q304 594 246 563T154 472T113 328H52ZM331 -90Q238 -90 172 -49T72 65T46 237H107Q101 154 126 94T204 3T336 -29L331 -90ZM46 237L52 328H113L107 237H46ZM331
-90L336 -29Q373 -29 411 -20T476 4L505 -44Q470 -65 423 -77T331 -90ZM322 75Q278 75 247 95T200 153T188 240H254Q250 191 272 166T340 141L322 75ZM188 240L193 311H259L254 240H188ZM322 75L340 141Q378 141 399 166T424 240H463Q459 191 440 154T391 96T322
75ZM605 237H666Q662 183 642 148T593 94T533 76T476 94T435 149T424 240H490Q486 187 501 160T539 133T581 159T605 237ZM193 311Q197 361 218 398T274 455T353 476L362 410Q316 410 290 385T259 311H193ZM429 311Q433 360 416 385T362 410L353 476Q392 476 419
456T459 398T468 311H429ZM424 240L438 442L440 470H506L490 240H424ZM605 237L611 328H672L666 237H605ZM611 328Q618 412 593 471T514 562T382 594L387 655Q480 655 546 614T646 500T672 328H611Z" />
<glyph unicode="A" horiz-adv-x="468" d="M114 150V213H369V150H114ZM266 700L96 0H30L200 700H266ZM268 700L438 0H372L202 700H268Z" />
<glyph unicode="B" horiz-adv-x="435" d="M195 331V397Q251 397 282 430T314 521H380Q380 467 356 424T290 356T195 331ZM96 0V63H205V0H96ZM96 331V397H205V331H96ZM324 179V205H390V179H324ZM324 204Q324 264 293 297T205 331V397Q258 397 300 372T366 303T390
204H324ZM96 637V700H195V637H96ZM380 520H314Q314 576 283 606T195 637V700Q251 700 292 678T357 615T380 520ZM390 180Q390 126 367 86T303 23T205 0V63Q261 63 292 94T324 180H390ZM60 0V700H126V0H60Z" />
<glyph unicode="C" horiz-adv-x="455" d="M50 164V536H116V164H50ZM50 536Q50 590 73 630T138 693T235 716V653Q179 653 148 623T116 536H50ZM50 164H116Q116 109 147 78T235 47V-16Q180 -16 138 6T73 69T50 164ZM364 514Q357 579 323 616T234 653V716Q313 716
363 666T425 527L364 514ZM364 186L425 173Q414 84 364 34T234 -16V47Q289 47 323 84T364 186Z" />
<glyph unicode="D" horiz-adv-x="445" d="M324 180V520H390V180H324ZM96 0V63H205V0H96ZM96 637V700H205V637H96ZM96 637V700H205V637H96ZM390 520H324Q324 576 293 606T205 637V700Q261 700 302 678T367 615T390 520ZM390 180Q390 126 367 86T303 23T205 0V63Q261
63 292 94T324 180H390ZM60 0V700H126V0H60Z" />
<glyph unicode="E" horiz-adv-x="410" d="M86 0V63H370V0H86ZM106 315V381H310V315H106ZM60 700H126V0H60V700ZM96 700H360V637H96V700Z" />
<glyph unicode="F" horiz-adv-x="380" d="M106 315V381H310V315H106ZM60 700H126V0H60V700ZM96 700H360V637H96V700Z" />
<glyph unicode="G" horiz-adv-x="480" d="M230 302V365H419V302H230ZM353 163V362H419V163H353ZM50 164V536H116V164H50ZM50 536Q50 590 73 630T138 693T235 716V653Q179 653 148 623T116 536H50ZM50 164H116Q116 109 147 78T235 47V-16Q180 -16 138 6T73 69T50
164ZM364 514Q357 579 323 616T234 653V716Q313 716 363 666T425 527L364 514ZM419 164Q419 110 396 70T332 7T234 -16V47Q290 47 321 78T353 164H419Z" />
<glyph unicode="H" horiz-adv-x="492" d="M80 318V381H386V318H80ZM366 0V700H432V0H366ZM60 0V700H126V0H60Z" />
<glyph unicode="I" horiz-adv-x="206" d="M70 0V700H136V0H70Z" />
<glyph unicode="J" horiz-adv-x="292" d="M166 139V700H232V139H166ZM232 139Q232 66 198 25T101 -16L96 47Q118 47 133 58T157 89T166 139H232ZM49 64Q60 57 71 52T96 47L101 -16Q79 -16 58 -9T20 12L49 64Z" />
<glyph unicode="K" horiz-adv-x="352" d="M76 378L289 700H359L146 378H76ZM302 0L76 378H146L372 0H302ZM60 0V700H126V0H60Z" />
<glyph unicode="L" horiz-adv-x="380" d="M96 0V63H360V0H96ZM60 0V700H126V0H60Z" />
<glyph unicode="M" horiz-adv-x="574" d="M255 0L412 700H478L321 0H255ZM252 0L95 700H161L318 0H252ZM60 0V700H126V0H60ZM448 0V700H514V0H448Z" />
<glyph unicode="N" horiz-adv-x="500" d="M355 0L74 700H146L426 0H355ZM60 0V700H126V0H60ZM374 0V700H440V0H374Z" />
<glyph unicode="O" horiz-adv-x="480" d="M359 164V536H425V164H359ZM55 164V536H121V164H55ZM425 535H359Q359 591 328 621T240 652V715Q296 715 337 693T402 630T425 535ZM55 535Q55 589 78 629T143 692T240 715V652Q184 652 153 622T121 535H55ZM425 165Q425
111 402 71T338 8T240 -15V48Q296 48 327 79T359 165H425ZM55 165H121Q121 110 152 79T240 48V-15Q185 -15 143 7T78 70T55 165Z" />
<glyph unicode="P" horiz-adv-x="420" d="M86 637V700H206V637H86ZM86 279V342H206V279H86ZM324 458V520H390V458H324ZM390 520H324Q324 576 293 606T205 637V700Q261 700 302 678T367 615T390 520ZM390 459Q390 405 367 365T303 302T205 279V342Q261 342 292
373T324 459H390ZM60 0V700H126V0H60Z" />
<glyph unicode="Q" horiz-adv-x="480" d="M338 -133Q315 -131 290 -116T244 -76T208 -28L231 1Q261 -31 294 -53T365 -80L338 -133ZM359 164V536H425V164H359ZM55 164V536H121V164H55ZM425 535H359Q359 591 328 621T240 652V715Q296 715 337 693T402 630T425 535ZM55
535Q55 589 78 629T143 692T240 715V652Q184 652 153 622T121 535H55ZM425 165Q425 111 402 71T338 8T240 -15V48Q296 48 327 79T359 165H425ZM55 165H121Q121 110 152 79T240 48V-15Q185 -15 143 7T78 70T55 165Z" />
<glyph unicode="R" horiz-adv-x="430" d="M320 0L191 348H261L390 0H320ZM86 311V374H206V311H86ZM86 637V700H206V637H86ZM324 490V521H390V490H324ZM390 520H324Q324 576 293 606T205 637V700Q261 700 302 678T367 615T390 520ZM390 491Q390 437 367 397T303
334T205 311V374Q261 374 292 405T324 491H390ZM60 0V700H126V0H60Z" />
<glyph unicode="S" horiz-adv-x="448" d="M345 153Q345 191 325 221T272 278T202 332T133 390T80 459T59 547H125Q125 510 145 480T198 422T268 368T337 310T390 241T411 153H345ZM59 545Q59 599 82 637T147 695T244 715V652Q188 652 157 624T125 545H59ZM411
155Q411 101 388 63T324 5T226 -15V48Q282 48 313 76T345 155H411ZM349 562Q344 609 314 630T244 652V715Q288 715 324 697T384 647T413 576L349 562ZM96 187Q103 122 137 85T226 48V-15Q147 -15 97 35T35 174L96 187Z" />
<glyph unicode="T" horiz-adv-x="430" d="M20 637V700H410V637H20ZM182 0V700H248V0H182Z" />
<glyph unicode="U" horiz-adv-x="488" d="M362 164V700H428V164H362ZM60 164V700H126V164H60ZM428 165Q428 111 405 71T341 8T243 -15V48Q299 48 330 79T362 165H428ZM60 165H126Q126 110 157 79T245 48V-15Q190 -15 148 7T83 70T60 165Z" />
<glyph unicode="V" horiz-adv-x="468" d="M202 0L372 700H438L268 0H202ZM200 0L30 700H96L266 0H200Z" />
<glyph unicode="W" horiz-adv-x="717" d="M466 0L329 700H395L532 0H466ZM167 0L40 700H106L233 0H167ZM185 0L322 700H388L251 0H185ZM484 0L611 700H677L550 0H484Z" />
<glyph unicode="X" horiz-adv-x="432" d="M336 0L30 700H96L402 0H336ZM30 0L183 350H249L96 0H30ZM183 350L336 700H402L249 350H183Z" />
<glyph unicode="Y" horiz-adv-x="426" d="M180 238L330 700H396L246 238H180ZM180 0V238H246V0H180ZM180 238L30 700H96L246 238H180Z" />
<glyph unicode="Z" horiz-adv-x="452" d="M40 63L343 637H412L109 63H40ZM40 0V63H412V0H40ZM40 637V700H412V637H40Z" />
<glyph unicode="[" horiz-adv-x="270" d="M50 -120V790H116V-120H50ZM50 -120V-54H270V-120H50ZM50 724V790H270V724H50Z" />
<glyph unicode="\" horiz-adv-x="320" d="M295 0H226L25 700H94L295 0Z" />
<glyph unicode="]" horiz-adv-x="270" d="M220 -120H154V790H220V-120ZM220 -120H0V-54H220V-120ZM220 724H0V790H220V724Z" />
<glyph unicode="^" horiz-adv-x="482" d="M208 700H274L452 349H386L208 700ZM30 349L208 700H274L96 349H30Z" />
<glyph unicode="_" horiz-adv-x="424" d="M50 -30V36H374V-30H50Z" />
<glyph unicode="`" horiz-adv-x="283" d="M147 557L70 685H148L213 557H147Z" />
<glyph unicode="a" horiz-adv-x="441" d="M330 0V350H396V0H330ZM205 -15V45Q245 45 272 65T315 123T330 215H368Q368 147 347 95T290 14T205 -15ZM205 -15Q162 -15 126 6T67 63T45 145H111Q111 102 140 74T205 45V-15ZM45 145Q45 191 67 226T128 283T215 304V244Q171
244 141 216T111 145H45ZM215 244V304H383V244H215ZM330 215V351H368V215H330ZM396 350H330Q330 394 300 423T225 452V515Q274 515 312 494T373 435T396 350ZM120 362L56 376Q61 416 84 447T145 496T225 515V452Q185 452 155 431T120 362Z" />
<glyph unicode="b" horiz-adv-x="448" d="M60 499V700H126V499H60ZM126 0H60V500H126V0ZM403 150H337V350H403V150ZM337 350Q337 393 307 421T232 449L246 515Q291 515 326 494T382 435T403 350H337ZM88 350Q88 397 109 434T165 493T246 515L232 449Q186 449 156
421T126 350H88ZM337 150H403Q403 103 383 66T327 7T246 -15L232 51Q277 51 307 79T337 150ZM88 150H126Q126 107 156 79T232 51L246 -15Q201 -15 166 6T109 65T88 150Z" />
<glyph unicode="c" horiz-adv-x="407" d="M45 163V337H111V163H45ZM45 336Q45 388 67 428T128 492T216 516V453Q167 453 139 423T111 336H45ZM320 363Q315 410 285 431T215 453V516Q259 516 295 498T355 448T384 377L320 363ZM45 164H111Q111 109 139 78T216 47V-16Q167
-16 129 7T68 71T45 164ZM320 137L384 123Q379 84 356 53T296 3T215 -16V47Q255 47 285 69T320 137Z" />
<glyph unicode="d" horiz-adv-x="448" d="M388 499H322V700H388V499ZM322 0V500H388V0H322ZM45 150V350H111V150H45ZM111 350H45Q45 397 65 434T121 493T202 515L216 449Q171 449 141 421T111 350ZM360 350H322Q322 393 292 421T216 449L202 515Q247 515 283 494T339
435T360 350ZM111 150Q111 107 141 79T216 51L202 -15Q157 -15 122 6T66 65T45 150H111ZM360 150Q360 103 340 66T283 7T202 -15L216 51Q262 51 292 79T322 150H360Z" />
<glyph unicode="e" horiz-adv-x="412" d="M41 227V284H377V227H41ZM205 -16V47H209V-16H205ZM35 164V335H101V164H35ZM311 284V350H377V284H311ZM377 350H311Q311 394 281 423T206 452V515Q255 515 293 494T354 435T377 350ZM313 137L377 123Q372 84 349 53T289
3T208 -16V47Q248 47 278 69T313 137ZM35 335Q35 387 57 427T118 491T206 515V452Q157 452 129 422T101 335H35ZM35 164H101Q101 109 129 78T206 47V-16Q157 -16 119 7T58 71T35 164Z" />
<glyph unicode="f" horiz-adv-x="305" d="M83 0V560H149V0H83ZM25 440V500H275V440H25ZM83 560Q83 633 118 674T214 715L219 652Q197 652 182 641T158 610T149 560H83ZM266 635Q255 643 244 647T219 652L214 715Q236 715 257 708T295 687L266 635Z" />
<glyph unicode="g" horiz-adv-x="448" d="M322 -20V500H388V-20H322ZM45 159V350H111V159H45ZM111 350H45Q45 397 65 434T121 493T202 515L216 449Q171 449 141 421T111 350ZM360 350H322Q322 393 292 421T216 449L202 515Q247 515 283 494T339 435T360 350ZM111
159Q111 116 141 88T216 60L202 -6Q157 -6 122 15T66 74T45 159H111ZM360 159Q360 112 340 75T283 16T202 -6L216 60Q262 60 292 88T322 159H360ZM388 -20Q388 -67 366 -104T305 -163T217 -185V-122Q262 -122 292 -93T322 -20H388ZM112 -32Q117 -78 147 -100T217
-122V-185Q174 -185 137 -167T77 -117T48 -46L112 -32Z" />
<glyph unicode="h" horiz-adv-x="448" d="M60 0V500H126V0H60ZM337 0V350H403V0H337ZM337 350Q337 393 307 421T232 449L246 515Q291 515 326 494T382 435T403 350H337ZM88 350Q88 397 109 434T165 493T246 515L232 449Q186 449 156 421T126 350H88ZM316 0V715H382V0H316Z"
/>
<glyph unicode="i" horiz-adv-x="206" d="M70 0V500H136V0H70ZM103 566Q82 566 68 580T54 615Q54 636 68 650T103 665Q124 665 138 651T153 615Q153 594 139 580T103 566Z" />
<glyph unicode="j" horiz-adv-x="222" d="M152 1Q152 -72 118 -113T21 -154L16 -91Q38 -91 53 -80T77 -49T86 1H152ZM-31 -74Q-20 -81 -9 -86T16 -91L21 -154Q-1 -154 -22 -147T-60 -126L-31 -74ZM86 0V500H152V0H86ZM138 567Q117 567 103 581T89 616Q89 637 103
651T138 666Q159 666 173 652T188 616Q188 595 174 581T138 567Z" />
<glyph unicode="k" horiz-adv-x="397" d="M304 0L126 277L186 306L372 0H304ZM116 190L69 237L274 500H361L116 190ZM60 0V715H126V0H60Z" />
<glyph unicode="l" horiz-adv-x="206" d="M70 0V715H136V0H70Z" />
<glyph unicode="m" horiz-adv-x="683" d="M60 0V500H126V0H60ZM316 0V350H382V0H316ZM87 350Q87 397 106 434T159 493T235 515L221 449Q181 449 154 421T126 350H87ZM316 350Q316 393 289 421T221 449L235 515Q277 515 310 494T363 435T382 350H316ZM572 0V350H638V0H572ZM343
350Q343 397 362 434T415 493T491 515L477 449Q437 449 410 421T382 350H343ZM572 350Q572 393 545 421T477 449L491 515Q533 515 566 494T619 435T638 350H572Z" />
<glyph unicode="n" horiz-adv-x="448" d="M60 0V500H126V0H60ZM337 0V350H403V0H337ZM337 350Q337 393 307 421T232 449L246 515Q291 515 326 494T382 435T403 350H337ZM88 350Q88 397 109 434T165 493T246 515L232 449Q186 449 156 421T126 350H88Z" />
<glyph unicode="o" horiz-adv-x="412" d="M311 164V336H377V164H311ZM35 164V336H101V164H35ZM204 452V515H208V452H204ZM204 -15V48H208V-15H204ZM35 335Q35 387 57 427T118 491T206 515V452Q157 452 129 422T101 335H35ZM377 335H311Q311 391 284 421T206 452V515Q255
515 293 492T354 428T377 335ZM35 165H101Q101 110 129 79T206 48V-15Q157 -15 119 8T58 72T35 165ZM377 165Q377 113 355 73T294 9T206 -15V48Q256 48 283 79T311 165H377Z" />
<glyph unicode="p" horiz-adv-x="448" d="M60 1H126V-200H60V1ZM126 500V0H60V500H126ZM403 350V150H337V350H403ZM337 150H403Q403 103 383 66T327 7T246 -15L232 51Q277 51 307 79T337 150ZM88 150H126Q126 107 156 79T232 51L246 -15Q201 -15 166 6T109 65T88
150ZM337 350Q337 393 307 421T232 449L246 515Q291 515 326 494T382 435T403 350H337ZM88 350Q88 397 109 434T165 493T246 515L232 449Q186 449 156 421T126 350H88Z" />
<glyph unicode="q" horiz-adv-x="448" d="M388 1V-200H322V1H388ZM322 500H388V0H322V500ZM45 350H111V150H45V350ZM111 150Q111 107 141 79T216 51L202 -15Q157 -15 122 6T66 65T45 150H111ZM360 150Q360 103 340 66T283 7T202 -15L216 51Q262 51 292 79T322
150H360ZM111 350H45Q45 397 65 434T121 493T202 515L216 449Q171 449 141 421T111 350ZM360 350H322Q322 393 292 421T216 449L202 515Q247 515 283 494T339 435T360 350Z" />
<glyph unicode="r" horiz-adv-x="310" d="M60 0V500H126V0H60ZM87 345Q87 392 104 429T150 488T215 510L211 444Q174 444 150 416T126 345H87ZM269 422Q259 432 243 438T211 444L215 510Q238 510 258 502T295 480L269 422Z" />
<glyph unicode="s" horiz-adv-x="402" d="M299 125Q299 152 281 170T235 202T176 231T116 264T70 311T52 380Q52 380 58 380T75 380T95 380T111 380T118 380Q118 353 136 335T182 303T241 275T301 241T347 195T365 125Q365 125 359 125T342 125T322 125T306 125T299
125ZM204 -15V48Q245 48 272 70T299 125H365Q365 85 344 54T287 4T204 -15ZM52 380Q52 419 71 450T123 498T198 516V453Q164 453 141 433T118 380H52ZM99 138Q104 92 134 70T204 48V-15Q161 -15 124 3T64 53T35 124L99 138ZM303 363Q298 410 268 431T198 453V516Q242
516 278 498T338 448T367 377L303 363Z" />
<glyph unicode="t" horiz-adv-x="325" d="M93 139V701L159 700V139H93ZM35 440V500H285V440H35ZM93 140H159Q159 111 167 91T191 59T229 48L224 -15Q163 -15 128 26T93 140ZM276 65L305 13Q289 0 268 -7T224 -15L229 48Q242 48 253 53T276 65Z" />
<glyph unicode="u" horiz-adv-x="448" d="M388 500V0H322V500H388ZM111 500V150H45V500H111ZM111 150Q111 107 141 79T216 51L202 -15Q157 -15 122 6T66 65T45 150H111ZM360 150Q360 103 340 66T283 7T202 -15L216 51Q262 51 292 79T322 150H360Z" />
<glyph unicode="v" horiz-adv-x="459" d="M197 0L363 500H429L263 0H197ZM196 0L30 500H96L262 0H196Z" />
<glyph unicode="w" horiz-adv-x="666" d="M435 0L570 500H636L501 0H435ZM165 0L30 500H96L231 0H165ZM165 0L300 500H366L231 0H165ZM435 0L300 500H366L501 0H435Z" />
<glyph unicode="x" horiz-adv-x="418" d="M316 0L30 500H102L388 0H316ZM30 0L173 250H245L102 0H30ZM173 250L316 500H388L245 250H173Z" />
<glyph unicode="y" horiz-adv-x="460" d="M59 -187L72 -129Q110 -139 137 -121T181 -50H247Q218 -138 170 -171T59 -187ZM181 -50L364 500H430L247 -50H181ZM203 -19L30 500H96L238 72L203 -19Z" />
<glyph unicode="z" horiz-adv-x="420" d="M55 63L290 437H365L131 63H55ZM55 0V63H365V0H55ZM55 437V500H365V437H55Z" />
<glyph unicode="{" horiz-adv-x="326" d="M155 470V614H221V470H155ZM155 30V174H221V30H155ZM155 614Q155 666 177 706T238 770T326 794V731Q277 731 249 701T221 614H155ZM155 30H221Q221 -25 249 -56T326 -87V-150Q277 -150 239 -127T178 -62T155 30ZM221 470Q221
419 199 378T138 314T50 290V353Q100 353 127 384T155 470H221ZM221 174H155Q155 230 128 260T50 291V354Q99 354 137 331T198 267T221 174Z" />
<glyph unicode="|" horiz-adv-x="203" d="M70 -90V790H133V-90H70Z" />
<glyph unicode="}" horiz-adv-x="326" d="M171 470H105V614H171V470ZM171 30H105V174H171V30ZM171 614H105Q105 670 78 700T0 731V794Q49 794 87 771T148 707T171 614ZM171 30Q171 -21 149 -62T88 -126T0 -150V-87Q50 -87 77 -56T105 30H171ZM105 470H171Q171
415 199 384T276 353V290Q227 290 189 313T128 378T105 470ZM105 174Q105 226 127 266T188 330T276 354V291Q227 291 199 261T171 174H105Z" />
<glyph unicode="~" horiz-adv-x="452" d="M318 230Q291 230 271 238T234 258T202 282T171 302T134 310V364Q161 364 181 356T218 336T250 312T281 292T318 284V230ZM30 267Q31 311 59 337T134 364V310Q112 310 100 299T87 267H30ZM318 230V284Q341 284 352 295T365
327H422Q421 284 393 257T318 230Z" />
<glyph unicode="&#xa0;" horiz-adv-x="180" />
<glyph unicode="&#xa1;" horiz-adv-x="199" d="M99 700Q120 700 134 686T149 651Q149 630 135 616T99 601Q78 601 64 615T50 651Q50 672 64 686T99 700ZM72 494H126L132 0H66L72 494Z" />
<glyph unicode="&#xa2;" horiz-adv-x="373" d="M172 5V142H225V5H172ZM171 530V667H224V530H171ZM45 259V415H104V259H45ZM45 414Q45 461 65 497T119 555T198 576V520Q154 520 129 492T104 414H45ZM292 439Q287 481 260 500T198 520V576Q237 576 269 560T323 515T350
451L292 439ZM45 260H104Q104 210 129 182T198 154V98Q154 98 120 119T65 176T45 260ZM292 235L350 223Q345 187 324 159T270 115T198 98V154Q233 154 260 173T292 235Z" />
<glyph unicode="&#xa3;" horiz-adv-x="500" d="M165 499Q165 594 216 647T360 700L346 637Q310 638 285 622T245 574T231 499H165ZM60 0V63H460V0H60ZM165 165V499H231V165H165ZM77 320V380H387V320H77ZM420 614Q400 627 383 632T346 637L360 700Q391 700 415
691T459 668L420 614ZM231 165Q231 118 209 81T148 22T60 0V63Q105 63 135 92T165 165H231Z" />
<glyph unicode="&#xa4;" horiz-adv-x="495" d="M340 398L296 443L401 548L445 503L340 398ZM94 152L50 197L155 302L199 257L94 152ZM155 398L50 503L94 548L199 443L155 398ZM401 152L296 257L340 302L445 197L401 152ZM249 204V264Q286 264 310 288T335 350H395Q395
309 376 276T324 223T249 204ZM249 204Q207 204 175 223T123 275T104 350H163Q163 313 187 289T249 264V204ZM104 350Q104 392 123 425T174 477T249 496V436Q212 436 188 412T163 350H104ZM335 350Q335 387 311 411T249 436V496Q291 496 324 477T376 425T395 350H335Z"
/>
<glyph unicode="&#xa5;" horiz-adv-x="493" d="M60 269V329H420V269H60ZM60 155V215H420V155H60ZM217 238L367 700H433L283 238H217ZM217 0V238H283V0H217ZM217 238L67 700H133L283 238H217Z" />
<glyph unicode="&#xa6;" horiz-adv-x="203" d="M70 387V777H133V387H70ZM70 -103V287H133V-103H70Z" />
<glyph unicode="&#xa7;" horiz-adv-x="405" d="M302 315Q302 342 284 360T238 392T179 421T119 454T73 501T55 570Q55 570 61 570T78 570T98 570T114 570T121 570Q121 543 139 525T185 493T244 465T304 431T350 385T368 315Q368 315 362 315T345 315T325 315T309
315T302 315ZM207 175V238Q248 238 275 260T302 315H368Q368 275 347 244T290 194T207 175ZM55 570Q55 609 74 639T126 688T201 706V643Q167 643 144 623T121 570H55ZM102 328Q107 282 137 260T207 238V175Q164 175 127 193T67 243T38 314L102 328ZM306 553Q301
600 271 621T201 643V706Q245 706 281 688T341 638T370 567L306 553ZM103 321Q103 294 121 276T167 244T226 215T286 182T332 135T350 66Q350 66 344 66T327 66T307 66T291 66T284 66Q284 93 266 111T220 143T161 171T101 205T55 252T37 321Q37 321 43 321T60 321T80
321T96 321T103 321ZM198 461V398Q158 398 131 376T103 321H37Q37 361 58 392T115 442T198 461ZM350 66Q350 27 331 -3T279 -52T204 -70V-7Q239 -7 261 14T284 66H350ZM303 308Q298 355 268 376T198 398V461Q242 461 278 443T338 393T367 322L303 308ZM99 83Q104
37 134 15T204 -7V-70Q161 -70 124 -52T64 -2T35 69L99 83Z" />
<glyph unicode="&#xa8;" horiz-adv-x="369" d="M119 546Q98 546 84 560T70 595Q70 616 84 630T119 645Q140 645 154 631T169 595Q169 574 155 560T119 546ZM249 546Q228 546 214 560T200 595Q200 616 214 630T249 645Q270 645 284 631T299 595Q299 574 285 560T249 546Z" />
<glyph unicode="&#xa9;" horiz-adv-x="710" d="M613 385Q613 469 581 530T491 626T354 660V712Q447 712 517 671T626 557T665 385H613ZM354 -12Q261 -12 192 29T84 143T45 315H97Q97 231 129 170T218 74T354 40V-12ZM45 315V385H97V315H45ZM354 -12V40Q433 40
491 74T581 169T613 315H665Q665 217 626 144T517 29T354 -12ZM45 385Q45 483 83 556T191 671T354 712V660Q276 660 219 626T129 531T97 385H45ZM613 315V385H665V315H613ZM224 280V421H278V280H224ZM224 420Q224 462 242 495T292 547T363 566V515Q323 515 301
490T278 420H224ZM447 442Q443 480 419 497T362 515V566Q415 566 454 534T499 453L447 442ZM224 281H278Q278 236 300 211T363 186V135Q323 135 292 154T243 206T224 281ZM447 259L499 248Q493 200 454 168T362 135V186Q394 186 418 203T447 259Z" />
<glyph unicode="&#xaa;" horiz-adv-x="353" d="M259 319V582H308V319H259ZM165 308V353Q194 353 215 368T247 411T259 480H287Q287 429 272 390T228 330T165 308ZM165 308Q133 308 106 323T62 366T45 428H94Q94 396 116 375T165 353V308ZM45 428Q45 462 61 489T107
531T172 547V502Q139 502 117 481T94 428H45ZM172 502V547H298V502H172ZM259 480V582H287V480H259ZM308 582H259Q259 614 237 636T180 658V705Q217 705 246 689T291 645T308 582ZM101 591L53 601Q59 645 95 675T180 705V658Q150 658 128 642T101 591Z" />
<glyph unicode="&#xab;" horiz-adv-x="483" d="M73 204V292L273 468V386L73 204ZM73 204L20 248L73 292V204ZM273 28L73 204V292L273 110V28ZM263 204V292L463 468V386L263 204ZM263 204L210 248L263 292V204ZM463 28L263 204V292L463 110V28Z" />
<glyph unicode="&#xac;" horiz-adv-x="460" d="M35 347V413H425V347H35ZM359 218V413H425V218H359Z" />
<glyph unicode="&#xad;" horiz-adv-x="370" d="M50 287V353H320V287H50Z" />
<glyph unicode="&#xae;" horiz-adv-x="463" d="M232 277Q176 277 134 301T69 370T45 474H76Q76 424 95 387T149 329T232 309V277ZM45 474V516H76V474H45ZM232 277V309Q279 309 314 329T368 386T387 474H418Q418 415 395 371T330 302T232 277ZM45 516Q46 575 69
619T134 687T232 712V681Q185 681 150 661T95 603T76 516H45ZM387 474V516H418V474H387ZM387 516Q387 566 368 603T314 660T232 681V712Q288 712 329 688T394 619T418 516H387ZM173 356V629H199V356H173ZM275 356L224 492H252L302 356H275ZM184 477V502H230V477H184ZM184
604V629H230V604H184ZM276 547V559H302V547H276ZM302 559H276Q276 580 264 592T230 604V629Q262 629 282 610T302 559ZM302 547Q302 516 282 497T230 477V502Q252 502 264 514T276 547H302Z" />
<glyph unicode="&#xaf;" horiz-adv-x="410" d="M70 648V700H340V648H70Z" />
<glyph unicode="&#xb0;" horiz-adv-x="363" d="M181 497V551Q215 551 237 573T259 629H313Q313 592 296 562T249 515T181 497ZM181 497Q144 497 114 514T67 562T50 629H104Q104 595 126 573T181 551V497ZM50 629Q50 667 67 696T114 743T181 760V706Q148 706 126
684T104 629H50ZM259 629Q259 662 237 684T181 706V760Q219 760 248 743T295 697T313 629H259Z" />
<glyph unicode="&#xb1;" horiz-adv-x="450" d="M192 195V585H258V195H192ZM30 357V423H420V357H30ZM30 60V126H420V60H30Z" />
<glyph unicode="&#xb2;" horiz-adv-x="263" d="M60 483Q60 520 72 545T101 588T136 623T166 659T178 705Q178 705 182 705T193 705T203 705T208 705Q208 671 196 649T166 609T131 575T101 537T88 483H60ZM60 453V483H208V453H60ZM84 710L55 717Q58 743 80 761T131
779V751Q113 751 100 741T84 710ZM208 705H178Q178 725 165 738T131 751V779Q164 779 186 758T208 705Z" />
<glyph unicode="&#xb3;" horiz-adv-x="262" d="M130 606V634Q149 634 161 650T173 691H203Q203 654 182 630T130 606ZM177 520V560H207V520H177ZM103 606V634H131V606H103ZM173 691Q173 715 161 730T130 746V775Q161 775 182 751T203 691H173ZM207 520Q207 488
185 467T130 446V474Q150 474 163 487T177 520H207ZM207 560H177Q177 579 164 592T130 606V634Q163 634 185 613T207 560ZM83 706L55 712Q58 739 79 757T131 775V746Q113 746 100 737T83 706ZM83 515Q86 494 99 484T131 474V446Q101 446 80 464T55 508L83 515Z"
/>
<glyph unicode="&#xb4;" horiz-adv-x="283" d="M136 557H70L135 685H213L136 557Z" />
<glyph unicode="&#xb5;" horiz-adv-x="448" d="M322 0V56V500H388V0H322ZM111 150Q111 107 141 79T216 51L202 -15Q157 -15 122 6T66 65T45 150H111ZM360 150Q360 103 340 66T283 7T202 -15L216 51Q262 51 292 79T322 150H360ZM45 -200V500H111V-200H45Z" />
<glyph unicode="&#xb6;" horiz-adv-x="514" d="M208 355Q160 355 121 378T59 441T35 528Q35 576 58 615T121 677T208 700V355ZM208 -200V700H274V-200H208ZM388 -200V700H454V-200H388ZM208 634V700H454V634H208Z" />
<glyph unicode="&#xb7;" horiz-adv-x="199" d="M99 300Q78 300 64 314T50 349Q50 370 64 384T99 399Q120 399 134 385T149 349Q149 328 135 314T99 300Z" />
<glyph unicode="&#xb8;" horiz-adv-x="304" d="M157 -166Q138 -166 115 -161T70 -145L88 -100Q112 -109 134 -112T168 -108T173 -71H233Q239 -116 219 -141T157 -166ZM173 -71Q167 -48 160 -32T144 0H204Q213 -13 221 -29T233 -71H173Z" />
<glyph unicode="&#xb9;" horiz-adv-x="160" d="M75 453V768H105V453H75ZM37 685L18 705L75 768V727L37 685Z" />
<glyph unicode="&#xba;" horiz-adv-x="347" d="M252 452V581H302V452H252ZM45 452V581H95V452H45ZM172 668V715H175V668H172ZM172 318V365H175V318H172ZM45 580Q45 619 62 649T108 697T174 715V668Q136 668 116 645T95 580H45ZM302 580H252Q252 622 232 645T174
668V715Q210 715 239 698T285 650T302 580ZM45 453H95Q95 411 115 388T174 365V318Q137 318 108 335T62 383T45 453ZM302 453Q302 414 285 384T239 336T174 318V365Q211 365 231 388T252 453H302Z" />
<glyph unicode="&#xbb;" horiz-adv-x="483" d="M410 204L210 386V468L410 292V204ZM410 204V292L463 248L410 204ZM210 28V110L410 292V204L210 28ZM220 204L20 386V468L220 292V204ZM220 204V292L273 248L220 204ZM20 28V110L220 292V204L20 28Z" />
<glyph unicode="&#xbc;" horiz-adv-x="733" d="M102 297V759H146V297H102ZM46 638L18 667L102 759V699L46 638ZM151 -15L462 791H507L196 -15H151ZM421 146L546 462H589L465 146H421ZM421 102V146H678V102H421ZM583 0V263H625V0H583Z" />
<glyph unicode="&#xbd;" horiz-adv-x="740" d="M102 297V759H146V297H102ZM46 638L18 667L102 759V699L46 638ZM151 -15L462 791H507L196 -15H151ZM468 44Q469 98 486 135T530 199T581 250T624 303T642 370Q642 370 648 370T663 370T678 370T685 370Q685 320 668
287T624 228T572 179T528 123T510 44H468ZM468 0V44H685V0H468ZM504 378L462 387Q467 426 498 452T573 479V437Q547 437 527 423T504 378ZM685 370H642Q642 398 622 417T572 437V479Q605 479 630 465T670 426T685 370Z" />
<glyph unicode="&#xbe;" horiz-adv-x="866" d="M166 521V562Q193 562 211 586T229 646H273Q273 592 243 557T166 521ZM235 395V453H279V395H235ZM126 521V562H167V521H126ZM229 645Q229 681 211 704T166 727V769Q212 769 242 734T273 645H229ZM279 395Q279 364
264 340T224 301T166 286V328Q196 328 215 347T235 395H279ZM279 453H235Q235 482 216 501T166 521V562Q198 562 223 548T264 509T279 453ZM97 668L55 677Q60 716 91 742T167 769V727Q140 727 121 713T97 668ZM97 387Q101 357 120 343T167 328V286Q123 286 92 312T55
378L97 387ZM284 -15L595 791H640L329 -15H284ZM554 146L679 462H722L598 146H554ZM554 102V146H811V102H554ZM716 0V263H758V0H716Z" />
<glyph unicode="&#xbf;" horiz-adv-x="415" d="M234 700Q255 700 269 686T283 651Q283 630 269 616T234 601Q213 601 199 615T184 651Q184 672 198 686T234 700ZM265 516Q265 453 250 409T212 333T167 274T129 219T113 155Q113 103 141 76T225 48Q254 48 274 58T304
87T314 135H380Q380 90 361 57T307 4T225 -15Q173 -15 134 6T72 66T50 155Q50 198 65 229T103 287T148 344T186 416T202 516H265ZM265 539V516H202V539H265Z" />
<glyph unicode="&#xc0;" horiz-adv-x="468" d="M114 150V213H369V150H114ZM266 700L96 0H30L200 700H266ZM268 700L438 0H372L202 700H268ZM185 757L108 885H186L251 757H185Z" />
<glyph unicode="&#xc1;" horiz-adv-x="468" d="M114 150V213H369V150H114ZM266 700L96 0H30L200 700H266ZM268 700L438 0H372L202 700H268ZM244 757H178L243 885H321L244 757Z" />
<glyph unicode="&#xc2;" horiz-adv-x="468" d="M114 150V213H369V150H114ZM266 700L96 0H30L200 700H266ZM268 700L438 0H372L202 700H268ZM195 885H261L196 757H118L195 885ZM264 885L341 757H263L198 885H264Z" />
<glyph unicode="&#xc3;" horiz-adv-x="468" d="M114 150V213H369V150H114ZM266 700L96 0H30L200 700H266ZM268 700L438 0H372L202 700H268ZM280 799Q261 799 249 804T226 818T206 831T180 837V882Q199 882 211 877T234 863T254 850T280 844V799ZM106 805Q106 841
125 861T180 882V837Q168 837 161 829T154 805H106ZM280 799V844Q292 844 299 852T306 876H354Q354 840 335 820T280 799Z" />
<glyph unicode="&#xc4;" horiz-adv-x="468" d="M114 150V213H369V150H114ZM266 700L96 0H30L200 700H266ZM268 700L438 0H372L202 700H268ZM164 766Q143 766 129 780T115 815Q115 836 129 850T164 865Q185 865 199 851T214 815Q214 794 200 780T164 766ZM294 766Q273
766 259 780T245 815Q245 836 259 850T294 865Q315 865 329 851T344 815Q344 794 330 780T294 766Z" />
<glyph unicode="&#xc5;" horiz-adv-x="468" d="M114 150V213H369V150H114ZM266 700L96 0H30L200 700H266ZM268 700L438 0H372L202 700H268ZM256 834Q256 845 249 852T230 860V908Q262 908 283 887T304 834H256ZM230 760Q199 760 178 781T156 834H204Q204 823 211
816T230 808V760ZM230 760V808Q241 808 248 815T256 834H304Q304 803 283 782T230 760ZM156 834Q156 866 177 887T230 908V860Q219 860 212 853T204 834H156Z" />
<glyph unicode="&#xc6;" horiz-adv-x="690" d="M262 637V700H394V637H262ZM104 150V213H359V150H104ZM30 0L220 700H286L96 0H30ZM386 315V381H590V315H386ZM340 700H406V0H340V700ZM376 700H640V637H376V700ZM366 0V63H650V0H366Z" />
<glyph unicode="&#xc7;" horiz-adv-x="455" d="M50 164V536H116V164H50ZM50 536Q50 590 73 630T138 693T235 716V653Q179 653 148 623T116 536H50ZM50 164H116Q116 109 147 78T235 47V-16Q180 -16 138 6T73 69T50 164ZM364 514Q357 579 323 616T234 653V716Q313
716 363 666T425 527L364 514ZM364 186L425 173Q414 84 364 34T234 -16V47Q289 47 323 84T364 186ZM272 -166Q253 -166 230 -161T185 -145L203 -100Q227 -109 249 -112T283 -108T288 -71H348Q354 -116 334 -141T272 -166ZM288 -71Q282 -48 275 -32T259 0H319Q328
-13 336 -29T348 -71H288Z" />
<glyph unicode="&#xc8;" horiz-adv-x="410" d="M86 0V63H370V0H86ZM106 315V381H310V315H106ZM60 700H126V0H60V700ZM96 700H360V637H96V700ZM160 757L83 885H161L226 757H160Z" />
<glyph unicode="&#xc9;" horiz-adv-x="410" d="M60 700H126V0H60V700ZM96 700H360V637H96V700ZM106 315V381H310V315H106ZM86 0V63H370V0H86ZM219 757H153L218 885H296L219 757Z" />
<glyph unicode="&#xca;" horiz-adv-x="410" d="M60 700H126V0H60V700ZM96 700H360V637H96V700ZM106 315V381H310V315H106ZM86 0V63H370V0H86ZM170 885H236L171 757H93L170 885ZM239 885L316 757H238L173 885H239Z" />
<glyph unicode="&#xcb;" horiz-adv-x="410" d="M86 0V63H370V0H86ZM106 315V381H310V315H106ZM60 700H126V0H60V700ZM96 700H360V637H96V700ZM139 766Q118 766 104 780T90 815Q90 836 104 850T139 865Q160 865 174 851T189 815Q189 794 175 780T139 766ZM269 766Q248
766 234 780T220 815Q220 836 234 850T269 865Q290 865 304 851T319 815Q319 794 305 780T269 766Z" />
<glyph unicode="&#xcc;" horiz-adv-x="206" d="M70 0V700H136V0H70ZM58 757L-19 885H59L124 757H58Z" />
<glyph unicode="&#xcd;" horiz-adv-x="206" d="M70 0V700H136V0H70ZM117 757H51L116 885H194L117 757Z" />
<glyph unicode="&#xce;" horiz-adv-x="206" d="M70 0V700H136V0H70ZM68 885H134L69 757H-9L68 885ZM137 885L214 757H136L71 885H137Z" />
<glyph unicode="&#xcf;" horiz-adv-x="206" d="M70 0V700H136V0H70ZM37 766Q16 766 2 780T-12 815Q-12 836 2 850T37 865Q58 865 72 851T87 815Q87 794 73 780T37 766ZM167 766Q146 766 132 780T118 815Q118 836 132 850T167 865Q188 865 202 851T217 815Q217
794 203 780T167 766Z" />
<glyph unicode="&#xd0;" horiz-adv-x="445" d="M324 180V520H390V180H324ZM96 0V63H205V0H96ZM96 637V700H205V637H96ZM96 637V700H205V637H96ZM390 520H324Q324 576 293 606T205 637V700Q261 700 302 678T367 615T390 520ZM390 180Q390 126 367 86T303 23T205
0V63Q261 63 292 94T324 180H390ZM60 0V700H126V0H60ZM222 323V379H462V323H222Z" />
<glyph unicode="&#xd1;" horiz-adv-x="500" d="M355 0L74 700H146L426 0H355ZM60 0V700H126V0H60ZM374 0V700H440V0H374ZM280 799Q261 799 249 804T226 818T206 831T180 837V882Q199 882 211 877T234 863T254 850T280 844V799ZM106 805Q106 841 125 861T180 882V837Q168
837 161 829T154 805H106ZM280 799V844Q292 844 299 852T306 876H354Q354 840 335 820T280 799Z" />
<glyph unicode="&#xd2;" horiz-adv-x="480" d="M359 164V536H425V164H359ZM55 164V536H121V164H55ZM425 535H359Q359 591 328 621T240 652V715Q296 715 337 693T402 630T425 535ZM55 535Q55 589 78 629T143 692T240 715V652Q184 652 153 622T121 535H55ZM425 165Q425
111 402 71T338 8T240 -15V48Q296 48 327 79T359 165H425ZM55 165H121Q121 110 152 79T240 48V-15Q185 -15 143 7T78 70T55 165ZM195 757L118 885H196L261 757H195Z" />
<glyph unicode="&#xd3;" horiz-adv-x="480" d="M359 164V536H425V164H359ZM55 164V536H121V164H55ZM425 535H359Q359 591 328 621T240 652V715Q296 715 337 693T402 630T425 535ZM55 535Q55 589 78 629T143 692T240 715V652Q184 652 153 622T121 535H55ZM425 165Q425
111 402 71T338 8T240 -15V48Q296 48 327 79T359 165H425ZM55 165H121Q121 110 152 79T240 48V-15Q185 -15 143 7T78 70T55 165ZM254 757H188L253 885H331L254 757Z" />
<glyph unicode="&#xd4;" horiz-adv-x="480" d="M359 164V536H425V164H359ZM55 164V536H121V164H55ZM425 535H359Q359 591 328 621T240 652V715Q296 715 337 693T402 630T425 535ZM55 535Q55 589 78 629T143 692T240 715V652Q184 652 153 622T121 535H55ZM425 165Q425
111 402 71T338 8T240 -15V48Q296 48 327 79T359 165H425ZM55 165H121Q121 110 152 79T240 48V-15Q185 -15 143 7T78 70T55 165ZM205 885H271L206 757H128L205 885ZM274 885L351 757H273L208 885H274Z" />
<glyph unicode="&#xd5;" horiz-adv-x="480" d="M359 164V536H425V164H359ZM55 164V536H121V164H55ZM425 535H359Q359 591 328 621T240 652V715Q296 715 337 693T402 630T425 535ZM55 535Q55 589 78 629T143 692T240 715V652Q184 652 153 622T121 535H55ZM425 165Q425
111 402 71T338 8T240 -15V48Q296 48 327 79T359 165H425ZM55 165H121Q121 110 152 79T240 48V-15Q185 -15 143 7T78 70T55 165ZM290 799Q271 799 259 804T236 818T216 831T190 837V882Q209 882 221 877T244 863T264 850T290 844V799ZM116 805Q116 841 135 861T190
882V837Q178 837 171 829T164 805H116ZM290 799V844Q302 844 309 852T316 876H364Q364 840 345 820T290 799Z" />
<glyph unicode="&#xd6;" horiz-adv-x="480" d="M359 164V536H425V164H359ZM55 164V536H121V164H55ZM425 535H359Q359 591 328 621T240 652V715Q296 715 337 693T402 630T425 535ZM55 535Q55 589 78 629T143 692T240 715V652Q184 652 153 622T121 535H55ZM425 165Q425
111 402 71T338 8T240 -15V48Q296 48 327 79T359 165H425ZM55 165H121Q121 110 152 79T240 48V-15Q185 -15 143 7T78 70T55 165ZM174 766Q153 766 139 780T125 815Q125 836 139 850T174 865Q195 865 209 851T224 815Q224 794 210 780T174 766ZM304 766Q283 766
269 780T255 815Q255 836 269 850T304 865Q325 865 339 851T354 815Q354 794 340 780T304 766Z" />
<glyph unicode="&#xd7;" horiz-adv-x="383" d="M307 159L31 435L77 481L353 205L307 159ZM77 158L30 205L306 481L353 434L77 158Z" />
<glyph unicode="&#xd8;" horiz-adv-x="480" d="M359 164V536H425V164H359ZM55 164V536H121V164H55ZM425 535H359Q359 591 328 621T240 652V715Q296 715 337 693T402 630T425 535ZM55 535Q55 589 78 629T143 692T240 715V652Q184 652 153 622T121 535H55ZM425 165Q425
111 402 71T338 8T240 -15V48Q296 48 327 79T359 165H425ZM55 165H121Q121 110 152 79T240 48V-15Q185 -15 143 7T78 70T55 165ZM76 -53L346 753H403L133 -53H76Z" />
<glyph unicode="&#xd9;" horiz-adv-x="488" d="M362 164V700H428V164H362ZM60 164V700H126V164H60ZM428 165Q428 111 405 71T341 8T243 -15V48Q299 48 330 79T362 165H428ZM60 165H126Q126 110 157 79T245 48V-15Q190 -15 148 7T83 70T60 165ZM199 757L122 885H200L265
757H199Z" />
<glyph unicode="&#xda;" horiz-adv-x="488" d="M362 164V700H428V164H362ZM60 164V700H126V164H60ZM428 165Q428 111 405 71T341 8T243 -15V48Q299 48 330 79T362 165H428ZM60 165H126Q126 110 157 79T245 48V-15Q190 -15 148 7T83 70T60 165ZM258 757H192L257
885H335L258 757Z" />
<glyph unicode="&#xdb;" horiz-adv-x="488" d="M362 164V700H428V164H362ZM60 164V700H126V164H60ZM428 165Q428 111 405 71T341 8T243 -15V48Q299 48 330 79T362 165H428ZM60 165H126Q126 110 157 79T245 48V-15Q190 -15 148 7T83 70T60 165ZM209 885H275L210
757H132L209 885ZM278 885L355 757H277L212 885H278Z" />
<glyph unicode="&#xdc;" horiz-adv-x="488" d="M362 164V700H428V164H362ZM60 164V700H126V164H60ZM428 165Q428 111 405 71T341 8T243 -15V48Q299 48 330 79T362 165H428ZM60 165H126Q126 110 157 79T245 48V-15Q190 -15 148 7T83 70T60 165ZM178 766Q157 766
143 780T129 815Q129 836 143 850T178 865Q199 865 213 851T228 815Q228 794 214 780T178 766ZM308 766Q287 766 273 780T259 815Q259 836 273 850T308 865Q329 865 343 851T358 815Q358 794 344 780T308 766Z" />
<glyph unicode="&#xdd;" horiz-adv-x="426" d="M180 238L330 700H396L246 238H180ZM180 0V238H246V0H180ZM180 238L30 700H96L246 238H180ZM227 757H161L226 885H304L227 757Z" />
<glyph unicode="&#xde;" horiz-adv-x="420" d="M86 497V560H205V497H86ZM86 139V202H205V139H86ZM324 318V380H390V318H324ZM390 380H324Q324 436 293 466T205 497V560Q261 560 302 538T367 475T390 380ZM390 319Q390 265 367 225T303 162T205 139V202Q261 202
292 233T324 319H390ZM60 0V700H126V0H60Z" />
<glyph unicode="&#xdf;" horiz-adv-x="477" d="M60 0V520H123V0H60ZM190 0L200 60H261V0H190ZM190 322V382H261V322H190ZM369 179V203H432V179H369ZM339 501V521H402V501H339ZM60 520Q60 577 80 617T139 678T231 700V640Q180 640 152 608T123 520H60ZM402 520H339Q339
576 311 608T231 640V700Q285 700 323 679T381 617T402 520ZM402 502Q402 446 382 406T323 344T231 322V382Q282 382 310 414T339 502H402ZM432 202H369Q369 258 341 290T261 322V382Q315 382 353 361T411 299T432 202ZM432 180Q432 124 412 84T353 22T261 0V60Q312
60 340 92T369 180H432Z" />
<glyph unicode="&#xe0;" horiz-adv-x="441" d="M330 0V350H396V0H330ZM205 -15V45Q245 45 272 65T315 123T330 215H368Q368 147 347 95T290 14T205 -15ZM205 -15Q162 -15 126 6T67 63T45 145H111Q111 102 140 74T205 45V-15ZM45 145Q45 191 67 226T128 283T215
304V244Q171 244 141 216T111 145H45ZM215 244V304H383V244H215ZM330 215V351H368V215H330ZM396 350H330Q330 394 300 423T225 452V515Q274 515 312 494T373 435T396 350ZM120 362L56 376Q61 416 84 447T145 496T225 515V452Q185 452 155 431T120 362ZM170 567L93
695H171L236 567H170Z" />
<glyph unicode="&#xe1;" horiz-adv-x="441" d="M330 0V350H396V0H330ZM205 -15V45Q245 45 272 65T315 123T330 215H368Q368 147 347 95T290 14T205 -15ZM205 -15Q162 -15 126 6T67 63T45 145H111Q111 102 140 74T205 45V-15ZM45 145Q45 191 67 226T128 283T215
304V244Q171 244 141 216T111 145H45ZM215 244V304H383V244H215ZM330 215V351H368V215H330ZM396 350H330Q330 394 300 423T225 452V515Q274 515 312 494T373 435T396 350ZM120 362L56 376Q61 416 84 447T145 496T225 515V452Q185 452 155 431T120 362ZM229 567H163L228
695H306L229 567Z" />
<glyph unicode="&#xe2;" horiz-adv-x="441" d="M330 0V350H396V0H330ZM205 -15V45Q245 45 272 65T315 123T330 215H368Q368 147 347 95T290 14T205 -15ZM205 -15Q162 -15 126 6T67 63T45 145H111Q111 102 140 74T205 45V-15ZM45 145Q45 191 67 226T128 283T215
304V244Q171 244 141 216T111 145H45ZM215 244V304H383V244H215ZM330 215V351H368V215H330ZM396 350H330Q330 394 300 423T225 452V515Q274 515 312 494T373 435T396 350ZM120 362L56 376Q61 416 84 447T145 496T225 515V452Q185 452 155 431T120 362ZM180 695H246L181
567H103L180 695ZM249 695L326 567H248L183 695H249Z" />
<glyph unicode="&#xe3;" horiz-adv-x="441" d="M330 0V350H396V0H330ZM205 -15V45Q245 45 272 65T315 123T330 215H368Q368 147 347 95T290 14T205 -15ZM205 -15Q162 -15 126 6T67 63T45 145H111Q111 102 140 74T205 45V-15ZM45 145Q45 191 67 226T128 283T215
304V244Q171 244 141 216T111 145H45ZM215 244V304H383V244H215ZM330 215V351H368V215H330ZM396 350H330Q330 394 300 423T225 452V515Q274 515 312 494T373 435T396 350ZM120 362L56 376Q61 416 84 447T145 496T225 515V452Q185 452 155 431T120 362ZM265 609Q246
609 234 614T211 628T191 641T165 647V692Q184 692 196 687T219 673T239 660T265 654V609ZM91 615Q91 651 110 671T165 692V647Q153 647 146 639T139 615H91ZM265 609V654Q277 654 284 662T291 686H339Q339 650 320 630T265 609Z" />
<glyph unicode="&#xe4;" horiz-adv-x="441" d="M330 0V350H396V0H330ZM205 -15V45Q245 45 272 65T315 123T330 215H368Q368 147 347 95T290 14T205 -15ZM205 -15Q162 -15 126 6T67 63T45 145H111Q111 102 140 74T205 45V-15ZM45 145Q45 191 67 226T128 283T215
304V244Q171 244 141 216T111 145H45ZM215 244V304H383V244H215ZM330 215V351H368V215H330ZM396 350H330Q330 394 300 423T225 452V515Q274 515 312 494T373 435T396 350ZM120 362L56 376Q61 416 84 447T145 496T225 515V452Q185 452 155 431T120 362ZM149 576Q128
576 114 590T100 625Q100 646 114 660T149 675Q170 675 184 661T199 625Q199 604 185 590T149 576ZM279 576Q258 576 244 590T230 625Q230 646 244 660T279 675Q300 675 314 661T329 625Q329 604 315 590T279 576Z" />
<glyph unicode="&#xe5;" horiz-adv-x="441" d="M330 0V350H396V0H330ZM205 -15V45Q245 45 272 65T315 123T330 215H368Q368 147 347 95T290 14T205 -15ZM205 -15Q162 -15 126 6T67 63T45 145H111Q111 102 140 74T205 45V-15ZM45 145Q45 191 67 226T128 283T215
304V244Q171 244 141 216T111 145H45ZM215 244V304H383V244H215ZM330 215V351H368V215H330ZM396 350H330Q330 394 300 423T225 452V515Q274 515 312 494T373 435T396 350ZM120 362L56 376Q61 416 84 447T145 496T225 515V452Q185 452 155 431T120 362ZM241 644Q241
655 234 662T215 670V718Q247 718 268 697T289 644H241ZM215 570Q184 570 163 591T141 644H189Q189 633 196 626T215 618V570ZM215 570V618Q226 618 233 625T241 644H289Q289 613 268 592T215 570ZM141 644Q141 676 162 697T215 718V670Q204 670 197 663T189 644H141Z"
/>
<glyph unicode="&#xe6;" horiz-adv-x="738" d="M225 -15V45Q267 45 292 58T328 103T340 185H398Q398 128 376 83T314 12T225 -15ZM205 -15V45Q245 45 272 65T315 123T330 215H368Q368 147 347 95T290 14T205 -15ZM205 -15Q162 -15 126 6T67 63T45 145H111Q111
102 140 74T205 45V-15ZM45 145Q45 191 67 226T128 283T215 304V244Q171 244 141 216T111 145H45ZM215 244V304H383V244H215ZM330 215V351H368V215H330ZM396 350H330Q330 394 300 423T225 452V515Q274 515 312 494T373 435T396 350ZM120 362L56 376Q61 416 84 447T145
496T225 515V452Q185 452 155 431T120 362ZM367 227V284H703V227H367ZM531 -16V47H535V-16H531ZM361 164V335H427V164H361ZM637 284V350H703V284H637ZM703 350H637Q637 394 607 423T532 452V515Q581 515 619 494T680 435T703 350ZM639 137L703 123Q698 84 675 53T615
3T534 -16V47Q574 47 604 69T639 137ZM361 335Q361 387 383 427T444 491T532 515V452Q483 452 455 422T427 335H361ZM361 164H427Q427 109 455 78T532 47V-16Q483 -16 445 7T384 71T361 164Z" />
<glyph unicode="&#xe7;" horiz-adv-x="407" d="M45 163V337H111V163H45ZM45 336Q45 388 67 428T128 492T216 516V453Q167 453 139 423T111 336H45ZM320 363Q315 410 285 431T215 453V516Q259 516 295 498T355 448T384 377L320 363ZM45 164H111Q111 109 139 78T216
47V-16Q167 -16 129 7T68 71T45 164ZM320 137L384 123Q379 84 356 53T296 3T215 -16V47Q255 47 285 69T320 137ZM253 -166Q234 -166 211 -161T166 -145L184 -100Q208 -109 230 -112T264 -108T269 -71H329Q335 -116 315 -141T253 -166ZM269 -71Q263 -48 256 -32T240
0H300Q309 -13 317 -29T329 -71H269Z" />
<glyph unicode="&#xe8;" horiz-adv-x="412" d="M41 227V284H377V227H41ZM205 -16V47H209V-16H205ZM35 164V335H101V164H35ZM311 284V350H377V284H311ZM377 350H311Q311 394 281 423T206 452V515Q255 515 293 494T354 435T377 350ZM313 137L377 123Q372 84 349
53T289 3T208 -16V47Q248 47 278 69T313 137ZM35 335Q35 387 57 427T118 491T206 515V452Q157 452 129 422T101 335H35ZM35 164H101Q101 109 129 78T206 47V-16Q157 -16 119 7T58 71T35 164ZM161 557L84 685H162L227 557H161Z" />
<glyph unicode="&#xe9;" horiz-adv-x="412" d="M41 227V284H377V227H41ZM205 -16V47H209V-16H205ZM35 164V335H101V164H35ZM311 284V350H377V284H311ZM377 350H311Q311 394 281 423T206 452V515Q255 515 293 494T354 435T377 350ZM313 137L377 123Q372 84 349
53T289 3T208 -16V47Q248 47 278 69T313 137ZM35 335Q35 387 57 427T118 491T206 515V452Q157 452 129 422T101 335H35ZM35 164H101Q101 109 129 78T206 47V-16Q157 -16 119 7T58 71T35 164ZM220 557H154L219 685H297L220 557Z" />
<glyph unicode="&#xea;" horiz-adv-x="412" d="M41 227V284H377V227H41ZM205 -16V47H209V-16H205ZM35 164V335H101V164H35ZM311 284V350H377V284H311ZM377 350H311Q311 394 281 423T206 452V515Q255 515 293 494T354 435T377 350ZM313 137L377 123Q372 84 349
53T289 3T208 -16V47Q248 47 278 69T313 137ZM35 335Q35 387 57 427T118 491T206 515V452Q157 452 129 422T101 335H35ZM35 164H101Q101 109 129 78T206 47V-16Q157 -16 119 7T58 71T35 164ZM171 685H237L172 557H94L171 685ZM240 685L317 557H239L174 685H240Z"
/>
<glyph unicode="&#xeb;" horiz-adv-x="412" d="M41 227V284H377V227H41ZM205 -16V47H209V-16H205ZM35 164V335H101V164H35ZM311 284V350H377V284H311ZM377 350H311Q311 394 281 423T206 452V515Q255 515 293 494T354 435T377 350ZM313 137L377 123Q372 84 349
53T289 3T208 -16V47Q248 47 278 69T313 137ZM35 335Q35 387 57 427T118 491T206 515V452Q157 452 129 422T101 335H35ZM35 164H101Q101 109 129 78T206 47V-16Q157 -16 119 7T58 71T35 164ZM140 566Q119 566 105 580T91 615Q91 636 105 650T140 665Q161 665 175
651T190 615Q190 594 176 580T140 566ZM270 566Q249 566 235 580T221 615Q221 636 235 650T270 665Q291 665 305 651T320 615Q320 594 306 580T270 566Z" />
<glyph unicode="&#xec;" horiz-adv-x="206" d="M70 0V500H136V0H70ZM315 557L238 685H316L381 557H315Z" />
<glyph unicode="&#xed;" horiz-adv-x="206" d="M70 0V500H136V0H70ZM118 557H52L117 685H195L118 557Z" />
<glyph unicode="&#xee;" horiz-adv-x="206" d="M70 0V500H136V0H70ZM69 685H135L70 557H-8L69 685ZM138 685L215 557H137L72 685H138Z" />
<glyph unicode="&#xef;" horiz-adv-x="206" d="M70 0V500H136V0H70ZM294 566Q273 566 259 580T245 615Q245 636 259 650T294 665Q315 665 329 651T344 615Q344 594 330 580T294 566ZM424 566Q403 566 389 580T375 615Q375 636 389 650T424 665Q445 665 459 651T474
615Q474 594 460 580T424 566Z" />
<glyph unicode="&#xf0;" horiz-adv-x="422" d="M311 341Q311 406 296 469T249 596T168 730L219 758Q273 686 308 618T360 481T377 341H311ZM161 593L131 641L312 745L342 697L161 593ZM311 164V336H377V164H311ZM35 164V336H101V164H35ZM204 452V515H208V452H204ZM204
-15V48H208V-15H204ZM35 335Q35 387 57 427T118 491T206 515V452Q157 452 129 422T101 335H35ZM377 335H311Q311 391 284 421T206 452V515Q255 515 293 492T354 428T377 335ZM35 165H101Q101 110 129 79T206 48V-15Q157 -15 119 8T58 72T35 165ZM377 165Q377 113
355 73T294 9T206 -15V48Q256 48 283 79T311 165H377Z" />
<glyph unicode="&#xf1;" horiz-adv-x="448" d="M60 0V500H126V0H60ZM337 0V350H403V0H337ZM337 350Q337 393 307 421T232 449L246 515Q291 515 326 494T382 435T403 350H337ZM88 350Q88 397 109 434T165 493T246 515L232 449Q186 449 156 421T126 350H88ZM288
599Q269 599 257 604T234 618T214 631T188 637V682Q207 682 219 677T242 663T262 650T288 644V599ZM114 605Q114 641 133 661T188 682V637Q176 637 169 629T162 605H114ZM288 599V644Q300 644 307 652T314 676H362Q362 640 343 620T288 599Z" />
<glyph unicode="&#xf2;" horiz-adv-x="412" d="M311 164V336H377V164H311ZM35 164V336H101V164H35ZM204 452V515H208V452H204ZM204 -15V48H208V-15H204ZM35 335Q35 387 57 427T118 491T206 515V452Q157 452 129 422T101 335H35ZM377 335H311Q311 391 284 421T206
452V515Q255 515 293 492T354 428T377 335ZM35 165H101Q101 110 129 79T206 48V-15Q157 -15 119 8T58 72T35 165ZM377 165Q377 113 355 73T294 9T206 -15V48Q256 48 283 79T311 165H377ZM161 557L84 685H162L227 557H161Z" />
<glyph unicode="&#xf3;" horiz-adv-x="412" d="M311 164V336H377V164H311ZM35 164V336H101V164H35ZM204 452V515H208V452H204ZM204 -15V48H208V-15H204ZM35 335Q35 387 57 427T118 491T206 515V452Q157 452 129 422T101 335H35ZM377 335H311Q311 391 284 421T206
452V515Q255 515 293 492T354 428T377 335ZM35 165H101Q101 110 129 79T206 48V-15Q157 -15 119 8T58 72T35 165ZM377 165Q377 113 355 73T294 9T206 -15V48Q256 48 283 79T311 165H377ZM220 557H154L219 685H297L220 557Z" />
<glyph unicode="&#xf4;" horiz-adv-x="412" d="M311 164V336H377V164H311ZM35 164V336H101V164H35ZM204 452V515H208V452H204ZM204 -15V48H208V-15H204ZM35 335Q35 387 57 427T118 491T206 515V452Q157 452 129 422T101 335H35ZM377 335H311Q311 391 284 421T206
452V515Q255 515 293 492T354 428T377 335ZM35 165H101Q101 110 129 79T206 48V-15Q157 -15 119 8T58 72T35 165ZM377 165Q377 113 355 73T294 9T206 -15V48Q256 48 283 79T311 165H377ZM171 685H237L172 557H94L171 685ZM240 685L317 557H239L174 685H240Z" />
<glyph unicode="&#xf5;" horiz-adv-x="412" d="M311 164V336H377V164H311ZM35 164V336H101V164H35ZM204 452V515H208V452H204ZM204 -15V48H208V-15H204ZM35 335Q35 387 57 427T118 491T206 515V452Q157 452 129 422T101 335H35ZM377 335H311Q311 391 284 421T206
452V515Q255 515 293 492T354 428T377 335ZM35 165H101Q101 110 129 79T206 48V-15Q157 -15 119 8T58 72T35 165ZM377 165Q377 113 355 73T294 9T206 -15V48Q256 48 283 79T311 165H377ZM256 599Q237 599 225 604T202 618T182 631T156 637V682Q175 682 187 677T210
663T230 650T256 644V599ZM82 605Q82 641 101 661T156 682V637Q144 637 137 629T130 605H82ZM256 599V644Q268 644 275 652T282 676H330Q330 640 311 620T256 599Z" />
<glyph unicode="&#xf6;" horiz-adv-x="412" d="M311 164V336H377V164H311ZM35 164V336H101V164H35ZM204 452V515H208V452H204ZM204 -15V48H208V-15H204ZM35 335Q35 387 57 427T118 491T206 515V452Q157 452 129 422T101 335H35ZM377 335H311Q311 391 284 421T206
452V515Q255 515 293 492T354 428T377 335ZM35 165H101Q101 110 129 79T206 48V-15Q157 -15 119 8T58 72T35 165ZM377 165Q377 113 355 73T294 9T206 -15V48Q256 48 283 79T311 165H377ZM140 566Q119 566 105 580T91 615Q91 636 105 650T140 665Q161 665 175 651T190
615Q190 594 176 580T140 566ZM270 566Q249 566 235 580T221 615Q221 636 235 650T270 665Q291 665 305 651T320 615Q320 594 306 580T270 566Z" />
<glyph unicode="&#xf7;" horiz-adv-x="450" d="M30 317V383H420V317H30ZM225 450Q204 450 190 464T176 499Q176 520 190 534T225 549Q246 549 260 535T275 499Q275 478 261 464T225 450ZM225 151Q204 151 190 165T176 200Q176 221 190 235T225 250Q246 250 260
236T275 200Q275 179 261 165T225 151Z" />
<glyph unicode="&#xf8;" horiz-adv-x="412" d="M60 -54L293 554H350L117 -54H60ZM311 164V336H377V164H311ZM35 164V336H101V164H35ZM204 452V515H208V452H204ZM204 -15V48H208V-15H204ZM35 335Q35 387 57 427T118 491T206 515V452Q157 452 129 422T101 335H35ZM377
335H311Q311 391 284 421T206 452V515Q255 515 293 492T354 428T377 335ZM35 165H101Q101 110 129 79T206 48V-15Q157 -15 119 8T58 72T35 165ZM377 165Q377 113 355 73T294 9T206 -15V48Q256 48 283 79T311 165H377Z" />
<glyph unicode="&#xf9;" horiz-adv-x="448" d="M388 500V0H322V500H388ZM111 500V150H45V500H111ZM111 150Q111 107 141 79T216 51L202 -15Q157 -15 122 6T66 65T45 150H111ZM360 150Q360 103 340 66T283 7T202 -15L216 51Q262 51 292 79T322 150H360ZM168 557L91
685H169L234 557H168Z" />
<glyph unicode="&#xfa;" horiz-adv-x="448" d="M388 500V0H322V500H388ZM111 500V150H45V500H111ZM111 150Q111 107 141 79T216 51L202 -15Q157 -15 122 6T66 65T45 150H111ZM360 150Q360 103 340 66T283 7T202 -15L216 51Q262 51 292 79T322 150H360ZM227 557H161L226
685H304L227 557Z" />
<glyph unicode="&#xfb;" horiz-adv-x="448" d="M388 500V0H322V500H388ZM111 500V150H45V500H111ZM111 150Q111 107 141 79T216 51L202 -15Q157 -15 122 6T66 65T45 150H111ZM360 150Q360 103 340 66T283 7T202 -15L216 51Q262 51 292 79T322 150H360ZM178 685H244L179
557H101L178 685ZM247 685L324 557H246L181 685H247Z" />
<glyph unicode="&#xfc;" horiz-adv-x="448" d="M388 500V0H322V500H388ZM111 500V150H45V500H111ZM111 150Q111 107 141 79T216 51L202 -15Q157 -15 122 6T66 65T45 150H111ZM360 150Q360 103 340 66T283 7T202 -15L216 51Q262 51 292 79T322 150H360ZM147 566Q126
566 112 580T98 615Q98 636 112 650T147 665Q168 665 182 651T197 615Q197 594 183 580T147 566ZM277 566Q256 566 242 580T228 615Q228 636 242 650T277 665Q298 665 312 651T327 615Q327 594 313 580T277 566Z" />
<glyph unicode="&#xfd;" horiz-adv-x="460" d="M59 -187L72 -129Q110 -139 137 -121T181 -50H247Q218 -138 170 -171T59 -187ZM181 -50L364 500H430L247 -50H181ZM203 -19L30 500H96L238 72L203 -19ZM244 557H178L243 685H321L244 557Z" />
<glyph unicode="&#xfe;" horiz-adv-x="448" d="M60 499V700H126V499H60ZM60 1H126V-200H60V1ZM126 500V0H60V500H126ZM403 350V150H337V350H403ZM337 150H403Q403 103 383 66T327 7T246 -15L232 51Q277 51 307 79T337 150ZM88 150H126Q126 107 156 79T232 51L246
-15Q201 -15 166 6T109 65T88 150ZM337 350Q337 393 307 421T232 449L246 515Q291 515 326 494T382 435T403 350H337ZM88 350Q88 397 109 434T165 493T246 515L232 449Q186 449 156 421T126 350H88Z" />
<glyph unicode="&#xff;" horiz-adv-x="460" d="M59 -187L72 -129Q110 -139 137 -121T181 -50H247Q218 -138 170 -171T59 -187ZM181 -50L364 500H430L247 -50H181ZM203 -19L30 500H96L238 72L203 -19ZM164 566Q143 566 129 580T115 615Q115 636 129 650T164 665Q185
665 199 651T214 615Q214 594 200 580T164 566ZM294 566Q273 566 259 580T245 615Q245 636 259 650T294 665Q315 665 329 651T344 615Q344 594 330 580T294 566Z" />
<glyph unicode="&#x2013;" horiz-adv-x="424" d="M50 287V353H374V287H50Z" />
<glyph unicode="&#x2014;" horiz-adv-x="586" d="M50 287V353H536V287H50Z" />
<glyph unicode="&#x2018;" horiz-adv-x="223" d="M110 610Q131 610 145 596T159 561Q159 540 145 526T110 511Q89 511 75 525T60 561Q60 582 74 596T110 610ZM163 695Q151 677 142 663T128 636T119 607T116 571L60 561Q60 592 68 617T89 666T121 718L163 695Z" />
<glyph unicode="&#x2019;" horiz-adv-x="223" d="M60 524Q72 542 81 556T95 583T104 612T107 648L163 658Q163 628 156 603T134 553T102 501L60 524ZM113 609Q92 609 78 623T64 658Q64 679 78 693T113 708Q134 708 148 694T163 658Q163 637 149 623T113 609Z" />
<glyph unicode="&#x201a;" horiz-adv-x="203" d="M50 -71Q62 -53 71 -39T85 -12T94 17T97 53L153 63Q153 33 146 8T124 -42T92 -94L50 -71ZM103 14Q82 14 68 28T54 63Q54 84 68 98T103 113Q124 113 138 99T153 63Q153 42 139 28T103 14Z" />
<glyph unicode="&#x201c;" horiz-adv-x="363" d="M110 602Q131 602 145 588T159 553Q159 532 145 518T110 503Q89 503 75 517T60 553Q60 574 74 588T110 602ZM163 687Q151 669 142 655T128 628T119 599T116 563L60 553Q60 584 68 609T89 658T121 710L163 687ZM250
602Q271 602 285 588T299 553Q299 532 285 518T250 503Q229 503 215 517T200 553Q200 574 214 588T250 602ZM303 687Q291 669 282 655T268 628T259 599T256 563L200 553Q200 584 208 609T229 658T261 710L303 687Z" />
<glyph unicode="&#x201d;" horiz-adv-x="363" d="M200 526Q212 544 221 558T235 585T244 614T247 650L303 660Q303 630 296 605T274 555T242 503L200 526ZM253 611Q232 611 218 625T204 660Q204 681 218 695T253 710Q274 710 288 696T303 660Q303 639 289 625T253
611ZM60 526Q72 544 81 558T95 585T104 614T107 650L163 660Q163 630 156 605T134 555T102 503L60 526ZM113 611Q92 611 78 625T64 660Q64 681 78 695T113 710Q134 710 148 696T163 660Q163 639 149 625T113 611Z" />
<glyph unicode="&#x201e;" horiz-adv-x="342" d="M189 -71Q201 -53 210 -39T224 -12T233 17T236 53L292 63Q292 33 285 8T263 -42T231 -94L189 -71ZM242 14Q221 14 207 28T193 63Q193 84 207 98T242 113Q263 113 277 99T292 63Q292 42 278 28T242 14ZM50 -71Q62
-53 71 -39T85 -12T94 17T97 53L153 63Q153 33 146 8T124 -42T92 -94L50 -71ZM103 14Q82 14 68 28T54 63Q54 84 68 98T103 113Q124 113 138 99T153 63Q153 42 139 28T103 14Z" />
<glyph unicode="&#x2022;" horiz-adv-x="298" d="M148 249Q106 249 78 277T50 347Q50 375 63 397T98 433T148 447Q176 447 198 434T234 398T248 347Q248 319 235 297T199 262T148 249Z" />
<glyph unicode="&#x2039;" horiz-adv-x="293" d="M73 204V292L273 468V386L73 204ZM73 204L20 248L73 292V204ZM273 28L73 204V292L273 110V28Z" />
<glyph unicode="&#x203a;" horiz-adv-x="293" d="M220 204L20 386V468L220 292V204ZM220 204V292L273 248L220 204ZM20 28V110L220 292V204L20 28Z" />
</font>
</defs>
</svg>
